<svg width="24" height="24" xmlns="http://www.w3.org/2000/svg">

 <g>
  <title>background</title>
  <rect fill="none" id="canvas_background" height="402" width="582" y="-1" x="-1"/>
 </g>
 <g>
  <title>Layer 1</title>
  <path fill="#ffffff" id="svg_1" d="m12,2c5.53,0 10,4.47 10,10c0,5.53 -4.47,10 -10,10c-5.53,0 -10,-4.47 -10,-10c0,-5.53 4.47,-10 10,-10m5,5l-2.5,0l-1,-1l-3,0l-1,1l-2.5,0l0,2l10,0l0,-2m-8,11l6,0a1,1 0 0 0 1,-1l0,-7l-8,0l0,7a1,1 0 0 0 1,1z"/>
  <polyline stroke-linecap="round" id="svg_3" points="-35.79526434994122,6.64566948370139 -35.79526434994122,6.803149757666667 " stroke-width="1.5" stroke="#000" fill="none"/>
 </g>
</svg>