<svg width="24" height="24" xmlns="http://www.w3.org/2000/svg">

 <g>
  <title>background</title>
  <rect fill="none" id="canvas_background" height="402" width="582" y="-1" x="-1"/>
 </g>
 <g>
  <title>Layer 1</title>
  <path fill="#ffffff" id="svg_1" d="m12,2.441176c-5.53,0 -10,4.47 -10,10c0,5.53 4.47,10 10,10c5.53,0 10,-4.47 10,-10c0,-5.53 -4.47,-10 -10,-10m3.1,5.07c0.14,0 0.28,0.05 0.4,0.16l1.27,1.27c0.23,0.22 0.23,0.57 0,0.78l-1,1l-2.05,-2.05l1,-1c0.1,-0.11 0.24,-0.16 0.38,-0.16m-1.97,1.74l2.06,2.06l-6.06,6.06l-2.06,0l0,-2.06l6.06,-6.06z"/>
 </g>
</svg>